<?xml version="1.0" encoding="utf-8"?>
<!-- Generator: Adobe Illustrator 26.0.3, SVG Export Plug-In . SVG Version: 6.00 Build 0)  -->
<svg version="1.1" id="Layer_1" xmlns="http://www.w3.org/2000/svg" xmlns:xlink="http://www.w3.org/1999/xlink" x="0px" y="0px"
	 viewBox="0 0 512 512" style="enable-background:new 0 0 512 512;" xml:space="preserve">
<style type="text/css">
	.st0{stroke:#000000;stroke-width:1.2001;}
	.st1{fill-rule:evenodd;clip-rule:evenodd;fill:#FFFFFF;stroke:#000000;stroke-width:1.6735;}
</style>
<g id="layer3" transform="translate(3.0398369e-6,99.99776)">
</g>
<g id="g2824">
	<path id="rect3990" class="st0" d="M24.25,0.42H488.5c13.02,0,23.57,10.55,23.57,23.57v464.25c0,13.02-10.55,23.57-23.57,23.57
		H24.25c-13.02,0-23.57-10.55-23.57-23.57V23.99C0.67,10.97,11.23,0.42,24.25,0.42z"/>
	<path id="path1356" class="st1" d="M77.21,443.48c0,0-12.66-37.33-3.88-80.82c-2.6-11.7-12.35-51.64-1.93-90.43
		c3.02-5.73-8.18-25.23-8.9-32.45C59.85,213.29,46.74,58.26,43.58,44.09c103.35-0.95,279.03-0.75,279.03-0.75
		s-2.06,18.54-2.73,21.91c-4.91,24.82,7.18,24.28,11.3,24.5c10.62,0.56,6.15-0.1,13.08,1.77c7.08,2.55,5.73,7.14,22.01,28.92
		c15.18,23.14,24.82,24.04,40.22,43.37c26.33,23.79,68.35,62.4,62.04,85.82c-17.88,50.16-29.01,83.53-34.55,134.01
		c-3.07,32.14-17.79,66.82-34.17,66.45c-12.65-0.3-7.64,3.57-12.41,10.68c-2.78,4.15-6.98,8.08-13.46,8.12
		c-6.21,0.03-10.96-0.89-14.83-7.21c-5.86-9.57,1.77-12.83-15.26-12.15c-15.46,0.61-262.31,1.97-262.31,1.97"/>
</g>
</svg>
