<?xml version="1.0" encoding="utf-8"?>
<!-- Generator: Adobe Illustrator 26.0.3, SVG Export Plug-In . SVG Version: 6.00 Build 0)  -->
<svg version="1.1" id="Layer_1" xmlns="http://www.w3.org/2000/svg" xmlns:xlink="http://www.w3.org/1999/xlink" x="0px" y="0px"
	 viewBox="0 0 20 20" style="enable-background:new 0 0 20 20;" xml:space="preserve">
<style type="text/css">
	.st0{stroke:#000000;stroke-width:1.2001;}
	.st1{fill-rule:evenodd;clip-rule:evenodd;fill:#FFFFFF;stroke:#000000;stroke-width:1.6735;}
</style>
<g id="layer3" transform="translate(3.0398369e-6,99.99776)">
</g>
<g id="g2824">
	<path id="rect3990" class="st0" d="M1.47,0.6h17.07c0.48,0,0.87,0.39,0.87,0.87v17.07c0,0.48-0.39,0.87-0.87,0.87H1.47
		c-0.48,0-0.87-0.39-0.87-0.87V1.47C0.6,0.99,0.99,0.6,1.47,0.6z"/>
	<path id="path1356" class="st1" d="M3.41,16.89c0,0-0.47-1.37-0.14-2.97c-0.1-0.43-0.45-1.9-0.07-3.32
		c0.11-0.21-0.3-0.93-0.33-1.19c-0.1-0.97-0.58-6.67-0.7-7.19c3.8-0.04,10.26-0.03,10.26-0.03s-0.08,0.68-0.1,0.81
		c-0.18,0.91,0.26,0.89,0.42,0.9c0.39,0.02,0.23,0,0.48,0.07c0.26,0.09,0.21,0.26,0.81,1.06c0.56,0.85,0.91,0.88,1.48,1.59
		c0.97,0.87,2.51,2.29,2.28,3.15c-0.66,1.84-1.07,3.07-1.27,4.93c-0.11,1.18-0.65,2.46-1.26,2.44c-0.46-0.01-0.28,0.13-0.46,0.39
		c-0.1,0.15-0.26,0.3-0.49,0.3c-0.23,0-0.4-0.03-0.55-0.26c-0.22-0.35,0.06-0.47-0.56-0.45c-0.57,0.02-9.64,0.07-9.64,0.07"/>
</g>
</svg>
